# Blender v2.79 (sub 0) OBJ File: 'board.blend'
# www.blender.org
mtllib encounter_card.mtl
o Cube.001_Cube.003
v -1.000000 -1.000000 0.020000
v -1.000000 1.000000 0.020000
v -1.000000 -1.000000 -0.020000
v -1.000000 1.000000 -0.020000
v 1.000000 -1.000000 0.020000
v 1.000000 1.000000 0.020000
v 1.000000 -1.000000 -0.020000
v 1.000000 1.000000 -0.020000
vt 0.983774 0.987216
vt 0.983774 0.987216
vt 0.983774 0.987216
vt 0.983774 0.987216
vt 0.983774 0.987216
vt 0.983774 0.987216
vt 0.983774 0.987216
vt 1.000000 0.000000
vt 0.000000 1.000000
vt 0.000000 0.000000
vt 0.983774 0.987216
vt 1.000000 1.000000
vn -1.0000 0.0000 0.0000
vn 0.0000 0.0000 -1.0000
vn 1.0000 0.0000 0.0000
vn 0.0000 0.0000 1.0000
vn 0.0000 -1.0000 0.0000
vn 0.0000 1.0000 0.0000
g Cube.001_Cube.003_Encounter_Card
usemtl Encounter_Card
s off
f 2/1/1 3/2/1 1/3/1
f 4/4/2 7/5/2 3/2/2
f 8/6/3 5/7/3 7/5/3
f 6/8/4 1/9/4 5/10/4
f 7/5/5 1/3/5 3/2/5
f 4/4/6 6/11/6 8/6/6
f 2/1/1 4/4/1 3/2/1
f 4/4/2 8/6/2 7/5/2
f 8/6/3 6/11/3 5/7/3
f 6/8/4 2/12/4 1/9/4
f 7/5/5 5/7/5 1/3/5
f 4/4/6 2/1/6 6/11/6
